<?xml version="1.0" encoding="UTF-8"?>
<!DOCTYPE svg PUBLIC "-//W3C//DTD SVG 1.1//EN" "http://www.w3.org/Graphics/SVG/1.1/DTD/svg11.dtd">
<svg xmlns="http://www.w3.org/2000/svg" version="1.1" width="256px" height="256px" style="shape-rendering:geometricPrecision; text-rendering:geometricPrecision; image-rendering:optimizeQuality; fill-rule:evenodd; clip-rule:evenodd" xmlns:xlink="http://www.w3.org/1999/xlink">
<g><path style="opacity:0.997" fill="#12aff9" d="M 181.5,64.5 C 181.608,66.7834 182.441,68.7834 184,70.5C 187.256,72.087 189.423,74.587 190.5,78C 188.835,78.7885 187.169,79.1218 185.5,79C 187.94,76.626 187.606,74.4593 184.5,72.5C 183.478,72.8555 182.811,73.5222 182.5,74.5C 181.504,74.5858 180.671,74.2524 180,73.5C 179.333,74.1667 178.667,74.8333 178,75.5C 176.887,74.2889 175.72,74.2889 174.5,75.5C 170.925,73.9296 167.592,71.9296 164.5,69.5C 162.085,69.7189 161.085,71.0523 161.5,73.5C 157.159,71.9987 153.159,69.832 149.5,67C 145.649,66.5856 141.983,65.7523 138.5,64.5C 138.5,72.5 138.5,80.5 138.5,88.5C 132.32,86.8182 125.987,86.1515 119.5,86.5C 119.098,80.7827 119.765,75.2827 121.5,70C 120.972,67.1187 120.306,64.2854 119.5,61.5C 115.973,61.4963 112.473,61.1629 109,60.5C 106.41,60.9448 103.91,61.6114 101.5,62.5C 99.0685,64.6092 96.4019,66.2758 93.5,67.5C 93.2865,65.8561 93.6198,64.3561 94.5,63C 90.7324,61.8227 90.8991,60.6561 95,59.5C 95.3333,59.8333 95.6667,60.1667 96,60.5C 96.2724,57.7462 96.7724,55.0795 97.5,52.5C 98.9142,50.9458 100.581,49.6125 102.5,48.5C 106.459,47.6735 110.459,47.1735 114.5,47C 115.5,46 116.5,45 117.5,44C 115.68,43.7996 114.347,42.9663 113.5,41.5C 114.5,41.5 115.5,41.5 116.5,41.5C 117.688,42.6843 118.855,42.6843 120,41.5C 120.735,39.1287 121.568,36.7954 122.5,34.5C 132.927,31.2617 136.927,34.9284 134.5,45.5C 140.736,47.6455 147.07,49.4789 153.5,51C 156.352,52.3822 158.018,54.5489 158.5,57.5C 166.133,60.0453 173.8,62.3786 181.5,64.5 Z"/></g>
<g><path style="opacity:0.997" fill="#10aff9" d="M 97.5,52.5 C 96.7724,55.0795 96.2724,57.7462 96,60.5C 95.6667,60.1667 95.3333,59.8333 95,59.5C 90.8991,60.6561 90.7324,61.8227 94.5,63C 93.6198,64.3561 93.2865,65.8561 93.5,67.5C 96.4019,66.2758 99.0685,64.6092 101.5,62.5C 100.167,65.4974 98.8339,68.4974 97.5,71.5C 96.8333,71.5 96.1667,71.5 95.5,71.5C 90.4792,70.0828 86.4792,71.7495 83.5,76.5C 81.3855,77.0339 79.5522,78.0339 78,79.5C 77.3828,80.4491 77.5494,81.2825 78.5,82C 76.5506,83.8347 74.2173,85.0014 71.5,85.5C 69.3415,89.8105 66.6749,93.8105 63.5,97.5C 60.2473,98.5975 56.9139,99.2642 53.5,99.5C 53.3677,92.5493 55.8677,86.8826 61,82.5C 61.6189,79.9682 62.6189,77.6349 64,75.5C 64.7891,73.2884 64.6225,71.2884 63.5,69.5C 64.5,67.1667 66.1667,65.5 68.5,64.5C 70.3881,65.2751 72.3881,65.2751 74.5,64.5C 74.5,63.5 74.5,62.5 74.5,61.5C 77.4869,61.0022 80.4869,60.5022 83.5,60C 88.1871,57.4995 92.8538,54.9995 97.5,52.5 Z"/></g>
<g><path style="opacity:0.906" fill="#3bb1e5" d="M 113.5,41.5 C 114.347,42.9663 115.68,43.7996 117.5,44C 116.5,45 115.5,46 114.5,47C 110.459,47.1735 106.459,47.6735 102.5,48.5C 100.581,49.6125 98.9142,50.9458 97.5,52.5C 92.8538,54.9995 88.1871,57.4995 83.5,60C 80.4869,60.5022 77.4869,61.0022 74.5,61.5C 74.5,62.5 74.5,63.5 74.5,64.5C 72.3881,65.2751 70.3881,65.2751 68.5,64.5C 70.1439,61.5521 72.4772,59.2188 75.5,57.5C 87.2506,49.8673 99.9173,44.534 113.5,41.5 Z"/></g>
<g><path style="opacity:0.643" fill="#3aacdc" d="M 138.5,88.5 C 138.5,90.1667 138.5,91.8333 138.5,93.5C 131.167,93.5 123.833,93.5 116.5,93.5C 116.5,83.8333 116.5,74.1667 116.5,64.5C 113.017,65.7523 109.351,66.5856 105.5,67C 103.074,68.9712 100.407,70.4712 97.5,71.5C 98.8339,68.4974 100.167,65.4974 101.5,62.5C 103.91,61.6114 106.41,60.9448 109,60.5C 112.473,61.1629 115.973,61.4963 119.5,61.5C 120.306,64.2854 120.972,67.1187 121.5,70C 119.765,75.2827 119.098,80.7827 119.5,86.5C 125.987,86.1515 132.32,86.8182 138.5,88.5 Z"/></g>
<g><path style="opacity:0.997" fill="#11aef7" d="M 181.5,64.5 C 184.264,67.3902 187.264,70.0568 190.5,72.5C 191.571,78.5662 194.071,83.8996 198,88.5C 200.163,89.768 202.33,89.768 204.5,88.5C 204.414,89.4959 204.748,90.3292 205.5,91C 203.59,91.4083 202.59,92.5749 202.5,94.5C 204.217,98.9907 204.883,103.657 204.5,108.5C 205.5,108.5 206.5,108.5 207.5,108.5C 207.081,112.773 207.748,116.773 209.5,120.5C 213.5,120.5 217.5,120.5 221.5,120.5C 221.5,125.5 221.5,130.5 221.5,135.5C 214.33,136.279 206.996,136.279 199.5,135.5C 190.787,135.738 182.453,136.738 174.5,138.5C 173.5,138.5 172.5,138.5 171.5,138.5C 170.618,136.616 169.118,135.283 167,134.5C 166.501,128.509 166.334,122.509 166.5,116.5C 168.5,116.5 170.5,116.5 172.5,116.5C 178.313,121.227 184.98,122.56 192.5,120.5C 195.442,115.157 196.108,109.49 194.5,103.5C 191.878,101.589 189.711,99.2554 188,96.5C 185.265,90.1023 182.099,83.9356 178.5,78C 179.102,76.437 179.935,76.6037 181,78.5C 182.188,77.4366 182.688,76.1033 182.5,74.5C 182.811,73.5222 183.478,72.8555 184.5,72.5C 187.606,74.4593 187.94,76.626 185.5,79C 187.169,79.1218 188.835,78.7885 190.5,78C 189.423,74.587 187.256,72.087 184,70.5C 182.441,68.7834 181.608,66.7834 181.5,64.5 Z"/></g>
<g><path style="opacity:0.918" fill="#35aedf" d="M 204.5,88.5 C 202.33,89.768 200.163,89.768 198,88.5C 194.071,83.8996 191.571,78.5662 190.5,72.5C 187.264,70.0568 184.264,67.3902 181.5,64.5C 173.8,62.3786 166.133,60.0453 158.5,57.5C 158.018,54.5489 156.352,52.3822 153.5,51C 147.07,49.4789 140.736,47.6455 134.5,45.5C 136.927,34.9284 132.927,31.2617 122.5,34.5C 121.568,36.7954 120.735,39.1287 120,41.5C 118.855,42.6843 117.688,42.6843 116.5,41.5C 116.5,37.5 116.5,33.5 116.5,29.5C 123.833,29.5 131.167,29.5 138.5,29.5C 138.5,33.5 138.5,37.5 138.5,41.5C 161.391,45.2691 180.557,55.9358 196,73.5C 199.356,78.2118 202.189,83.2118 204.5,88.5 Z"/></g>
<g><path style="opacity:0.996" fill="#31aeea" d="M 63.5,69.5 C 64.6225,71.2884 64.7891,73.2884 64,75.5C 62.6189,77.6349 61.6189,79.9682 61,82.5C 55.8677,86.8826 53.3677,92.5493 53.5,99.5C 56.9139,99.2642 60.2473,98.5975 63.5,97.5C 66.6749,93.8105 69.3415,89.8105 71.5,85.5C 74.2173,85.0014 76.5506,83.8347 78.5,82C 77.5494,81.2825 77.3828,80.4491 78,79.5C 79.5522,78.0339 81.3855,77.0339 83.5,76.5C 86.4792,71.7495 90.4792,70.0828 95.5,71.5C 87.642,77.5214 80.4754,84.5214 74,92.5C 72.0408,97.4291 69.7075,102.096 67,106.5C 66.944,109.78 66.1107,112.78 64.5,115.5C 74.1437,116.498 83.8104,116.832 93.5,116.5C 93.8132,123.755 93.4799,130.921 92.5,138C 83.1489,138.168 73.8155,138.668 64.5,139.5C 66.373,144.121 68.0396,148.787 69.5,153.5C 66.6286,154.986 65.2953,153.986 65.5,150.5C 64.5,150.5 63.5,150.5 62.5,150.5C 62.7854,146.975 62.1187,143.642 60.5,140.5C 61.1556,138.547 61.4889,136.547 61.5,134.5C 65.2568,134.929 68.7568,134.263 72,132.5C 76.8098,135.102 81.9764,136.102 87.5,135.5C 86.6864,130.881 86.3531,126.214 86.5,121.5C 83.1149,121.154 79.7816,120.488 76.5,119.5C 70.8657,120.575 65.1991,120.742 59.5,120C 57.4102,118.56 55.2436,118.726 53,120.5C 50.7522,119.045 48.2522,118.212 45.5,118C 44.695,116.887 44.0283,115.721 43.5,114.5C 43.335,111.15 43.5017,107.817 44,104.5C 45.8258,99.958 47.4925,95.2913 49,90.5C 52.0545,84.7326 55.3879,79.0659 59,73.5C 60.3968,71.9297 61.8968,70.5964 63.5,69.5 Z"/></g>
<g><path style="opacity:0.686" fill="#3eb0e5" d="M 204.5,88.5 C 206.937,93.2868 209.104,98.2868 211,103.5C 211.269,108.034 212.102,112.367 213.5,116.5C 217.5,116.5 221.5,116.5 225.5,116.5C 225.813,123.755 225.48,130.921 224.5,138C 207.837,138.5 191.17,138.667 174.5,138.5C 182.453,136.738 190.787,135.738 199.5,135.5C 206.996,136.279 214.33,136.279 221.5,135.5C 221.5,130.5 221.5,125.5 221.5,120.5C 217.5,120.5 213.5,120.5 209.5,120.5C 207.748,116.773 207.081,112.773 207.5,108.5C 206.5,108.5 205.5,108.5 204.5,108.5C 204.883,103.657 204.217,98.9907 202.5,94.5C 202.59,92.5749 203.59,91.4083 205.5,91C 204.748,90.3292 204.414,89.4959 204.5,88.5 Z"/></g>
<g><path style="opacity:0.997" fill="#13aef9" d="M 43.5,114.5 C 44.0283,115.721 44.695,116.887 45.5,118C 48.2522,118.212 50.7522,119.045 53,120.5C 55.2436,118.726 57.4102,118.56 59.5,120C 65.1991,120.742 70.8657,120.575 76.5,119.5C 79.7816,120.488 83.1149,121.154 86.5,121.5C 86.3531,126.214 86.6864,130.881 87.5,135.5C 81.9764,136.102 76.8098,135.102 72,132.5C 68.7568,134.263 65.2568,134.929 61.5,134.5C 61.4889,136.547 61.1556,138.547 60.5,140.5C 62.1187,143.642 62.7854,146.975 62.5,150.5C 59.1542,151.003 55.8208,151.67 52.5,152.5C 52.8333,153.5 53.5,154.167 54.5,154.5C 54.9862,160.118 56.3195,165.451 58.5,170.5C 56.9382,170.733 55.6049,171.4 54.5,172.5C 53.6618,172.158 53.3284,171.492 53.5,170.5C 54.5396,166.22 54.7062,161.887 54,157.5C 49.8902,156.775 48.3902,154.608 49.5,151C 48.8333,149 48.1667,147 47.5,145C 49.0281,142.719 49.5281,140.219 49,137.5C 47.6667,136.167 46.3333,136.167 45,137.5C 41.8958,134.883 39.0624,135.217 36.5,138.5C 34.1667,138.5 31.8333,138.5 29.5,138.5C 29.5,131.167 29.5,123.833 29.5,116.5C 34.3993,116.904 39.066,116.237 43.5,114.5 Z"/></g>
<g><path style="opacity:0.757" fill="#31b1eb" d="M 182.5,74.5 C 182.688,76.1033 182.188,77.4366 181,78.5C 179.935,76.6037 179.102,76.437 178.5,78C 182.099,83.9356 185.265,90.1023 188,96.5C 189.711,99.2554 191.878,101.589 194.5,103.5C 196.108,109.49 195.442,115.157 192.5,120.5C 184.98,122.56 178.313,121.227 172.5,116.5C 178.5,116.5 184.5,116.5 190.5,116.5C 189.796,110.251 187.629,104.584 184,99.5C 182.617,96.6318 181.784,93.6318 181.5,90.5C 180.325,90.719 179.325,90.3857 178.5,89.5C 174.5,84.8333 170.167,80.5 165.5,76.5C 164.614,75.675 164.281,74.675 164.5,73.5C 163.5,73.5 162.5,73.5 161.5,73.5C 161.085,71.0523 162.085,69.7189 164.5,69.5C 167.592,71.9296 170.925,73.9296 174.5,75.5C 175.72,74.2889 176.887,74.2889 178,75.5C 178.667,74.8333 179.333,74.1667 180,73.5C 180.671,74.2524 181.504,74.5858 182.5,74.5 Z"/></g>
<g><path style="opacity:0.998" fill="#06aefb" d="M 209.5,120.5 C 209.418,122.252 210.251,123.252 212,123.5C 218.388,120.819 221.221,123.152 220.5,130.5C 217.654,130.59 215.321,131.756 213.5,134C 198.823,134.611 184.156,134.444 169.5,133.5C 168.839,128.832 170.839,126.832 175.5,127.5C 175.5,126.167 175.5,124.833 175.5,123.5C 173.131,123.851 170.797,124.018 168.5,124C 167.184,122.022 167.684,120.522 170,119.5C 174.972,120.581 179.639,122.248 184,124.5C 187.481,123.877 190.981,123.377 194.5,123C 195.907,121.548 197.407,121.715 199,123.5C 199.5,123 200,122.5 200.5,122C 199.449,120.615 198.116,119.615 196.5,119C 199.353,117.466 202.186,115.966 205,114.5C 206.117,115.949 206.784,117.616 207,119.5C 207.671,120.252 208.504,120.586 209.5,120.5 Z"/></g>
<g><path style="opacity:0.841" fill="#49a8cf" d="M 166.5,116.5 C 166.334,122.509 166.501,128.509 167,134.5C 169.118,135.283 170.618,136.616 171.5,138.5C 168.223,138.784 165.057,138.451 162,137.5C 161.5,130.508 161.334,123.508 161.5,116.5C 163.167,116.5 164.833,116.5 166.5,116.5 Z"/></g>
<g><path style="opacity:0.733" fill="#3fb2e4" d="M 208.5,155.5 C 206.595,155.072 204.762,155.738 203,157.5C 202.749,155.567 202.249,153.734 201.5,152C 187.752,150.524 174.086,150.691 160.5,152.5C 159.631,154.868 157.965,156.368 155.5,157C 154.213,158.41 153.046,159.91 152,161.5C 151.333,175.167 151.333,188.833 152,202.5C 152.739,203.574 153.739,204.241 155,204.5C 156.983,203.091 159.15,202.091 161.5,201.5C 162.099,198.146 163.432,195.146 165.5,192.5C 166.183,192.863 166.85,193.196 167.5,193.5C 168.079,198.118 167.079,202.285 164.5,206C 159.116,208.204 153.449,209.037 147.5,208.5C 147.571,204.303 147.237,200.137 146.5,196C 147.268,182.85 147.768,169.683 148,156.5C 149.307,155.228 150.807,154.228 152.5,153.5C 154.741,148.421 158.575,145.421 164,144.5C 178.813,145.143 193.646,145.81 208.5,146.5C 209.544,147.623 210.21,148.956 210.5,150.5C 210.014,152.304 209.347,153.971 208.5,155.5 Z"/></g>
<g><path style="opacity:0.325" fill="#42b3e8" d="M 53.5,170.5 C 50.9554,167.114 48.7887,163.448 47,159.5C 44.448,153.15 43.1147,146.483 43,139.5C 40.9592,138.577 38.7925,138.244 36.5,138.5C 39.0624,135.217 41.8958,134.883 45,137.5C 46.3333,136.167 47.6667,136.167 49,137.5C 49.5281,140.219 49.0281,142.719 47.5,145C 48.1667,147 48.8333,149 49.5,151C 48.3902,154.608 49.8902,156.775 54,157.5C 54.7062,161.887 54.5396,166.22 53.5,170.5 Z"/></g>
<g><path style="opacity:0.998" fill="#0baefb" d="M 62.5,150.5 C 63.5,150.5 64.5,150.5 65.5,150.5C 65.2953,153.986 66.6286,154.986 69.5,153.5C 70.5511,154.222 71.2178,155.222 71.5,156.5C 70.603,155.402 69.7697,155.402 69,156.5C 67.7381,159.474 66.2381,162.307 64.5,165C 65.7441,165.456 66.5774,164.956 67,163.5C 68.6398,165.579 69.8064,167.912 70.5,170.5C 72.4233,171.308 74.4233,171.808 76.5,172C 78.234,173.734 80.234,175.068 82.5,176C 83.8333,178.333 83.8333,180.667 82.5,183C 83.7932,183.49 85.1266,183.657 86.5,183.5C 88.3853,186.485 90.3853,189.485 92.5,192.5C 93.4656,194.396 93.7989,196.396 93.5,198.5C 90.6592,198.44 87.9925,197.774 85.5,196.5C 84.3415,194.26 83.0082,192.094 81.5,190C 74.9344,190.288 73.2678,187.454 76.5,181.5C 73.1751,180.623 69.8418,180.456 66.5,181C 64.4552,178.414 62.7885,175.58 61.5,172.5C 60.6431,171.575 59.6431,170.908 58.5,170.5C 56.3195,165.451 54.9862,160.118 54.5,154.5C 53.5,154.167 52.8333,153.5 52.5,152.5C 55.8208,151.67 59.1542,151.003 62.5,150.5 Z"/></g>
<g><path style="opacity:0.997" fill="#16aff8" d="M 208.5,155.5 C 207.807,159.567 206.14,163.233 203.5,166.5C 192.5,167.167 181.5,167.833 170.5,168.5C 170.167,169.5 169.5,170.167 168.5,170.5C 167.503,178.138 167.169,185.804 167.5,193.5C 166.85,193.196 166.183,192.863 165.5,192.5C 163.432,195.146 162.099,198.146 161.5,201.5C 159.15,202.091 156.983,203.091 155,204.5C 153.739,204.241 152.739,203.574 152,202.5C 151.333,188.833 151.333,175.167 152,161.5C 153.046,159.91 154.213,158.41 155.5,157C 157.965,156.368 159.631,154.868 160.5,152.5C 174.086,150.691 187.752,150.524 201.5,152C 202.249,153.734 202.749,155.567 203,157.5C 204.762,155.738 206.595,155.072 208.5,155.5 Z"/></g>
<g><path style="opacity:0.847" fill="#34ade7" d="M 71.5,156.5 C 73.0492,159.892 75.2159,162.892 78,165.5C 78.49,166.793 78.6567,168.127 78.5,169.5C 82.1667,170.5 84.5,172.833 85.5,176.5C 88.8333,176.5 91.4999,177.833 93.5,180.5C 100.842,184.572 108.508,187.238 116.5,188.5C 116.168,179.475 116.502,170.475 117.5,161.5C 118.308,161.192 118.975,160.692 119.5,160C 124.833,159.333 130.167,159.333 135.5,160C 136.025,160.692 136.692,161.192 137.5,161.5C 138.499,175.818 138.833,190.151 138.5,204.5C 137.167,203.5 135.833,202.5 134.5,201.5C 134.5,190.5 134.5,179.5 134.5,168.5C 129.547,169.329 124.547,169.663 119.5,169.5C 120.325,177.597 121.658,185.597 123.5,193.5C 120.001,195.562 116.335,195.895 112.5,194.5C 103.764,191.247 95.0972,187.58 86.5,183.5C 85.1266,183.657 83.7932,183.49 82.5,183C 83.8333,180.667 83.8333,178.333 82.5,176C 80.234,175.068 78.234,173.734 76.5,172C 74.4233,171.808 72.4233,171.308 70.5,170.5C 69.8064,167.912 68.6398,165.579 67,163.5C 66.5774,164.956 65.7441,165.456 64.5,165C 66.2381,162.307 67.7381,159.474 69,156.5C 69.7697,155.402 70.603,155.402 71.5,156.5 Z"/></g>
<g><path style="opacity:0.997" fill="#08aefa" d="M 134.5,201.5 C 134.665,204.85 134.498,208.183 134,211.5C 133,213.833 131.333,215.5 129,216.5C 128.383,217.449 128.549,218.282 129.5,219C 126.312,220.316 122.978,220.816 119.5,220.5C 119.34,217.116 119.673,213.783 120.5,210.5C 120.471,208.971 119.804,207.804 118.5,207C 112.589,205.536 106.589,204.536 100.5,204C 97.1989,201.055 93.1989,199.721 88.5,200C 86.5743,199.578 85.5743,198.411 85.5,196.5C 87.9925,197.774 90.6592,198.44 93.5,198.5C 93.7989,196.396 93.4656,194.396 92.5,192.5C 90.3853,189.485 88.3853,186.485 86.5,183.5C 95.0972,187.58 103.764,191.247 112.5,194.5C 116.335,195.895 120.001,195.562 123.5,193.5C 121.658,185.597 120.325,177.597 119.5,169.5C 124.547,169.663 129.547,169.329 134.5,168.5C 134.5,179.5 134.5,190.5 134.5,201.5 Z"/></g>
<g><path style="opacity:0.859" fill="#34ade9" d="M 58.5,170.5 C 59.6431,170.908 60.6431,171.575 61.5,172.5C 62.7885,175.58 64.4552,178.414 66.5,181C 69.8418,180.456 73.1751,180.623 76.5,181.5C 73.2678,187.454 74.9344,190.288 81.5,190C 83.0082,192.094 84.3415,194.26 85.5,196.5C 85.5743,198.411 86.5743,199.578 88.5,200C 93.1989,199.721 97.1989,201.055 100.5,204C 106.589,204.536 112.589,205.536 118.5,207C 119.804,207.804 120.471,208.971 120.5,210.5C 119.673,213.783 119.34,217.116 119.5,220.5C 122.978,220.816 126.312,220.316 129.5,219C 128.549,218.282 128.383,217.449 129,216.5C 131.333,215.5 133,213.833 134,211.5C 134.498,208.183 134.665,204.85 134.5,201.5C 135.833,202.5 137.167,203.5 138.5,204.5C 138.5,211.5 138.5,218.5 138.5,225.5C 131.167,225.5 123.833,225.5 116.5,225.5C 116.8,220.901 116.467,216.401 115.5,212C 108.922,211.527 102.588,210.193 96.5,208C 85.4327,202.969 75.266,196.469 66,188.5C 62.0866,183.213 58.2533,177.879 54.5,172.5C 55.6049,171.4 56.9382,170.733 58.5,170.5 Z"/></g>
</svg>
