<?xml version="1.0" encoding="UTF-8"?>
<!DOCTYPE svg PUBLIC "-//W3C//DTD SVG 1.1//EN" "http://www.w3.org/Graphics/SVG/1.1/DTD/svg11.dtd">
<svg xmlns="http://www.w3.org/2000/svg" version="1.1" width="256px" height="85px" style="shape-rendering:geometricPrecision; text-rendering:geometricPrecision; image-rendering:optimizeQuality; fill-rule:evenodd; clip-rule:evenodd" xmlns:xlink="http://www.w3.org/1999/xlink">
<g><path style="opacity:1" fill="#27aef0" d="M 27.5,18.5 C 29.5,18.5 31.5,18.5 33.5,18.5C 33.5,19.8333 33.5,21.1667 33.5,22.5C 44.5,23.5 50.5,29.5 51.5,40.5C 52.8333,40.5 54.1667,40.5 55.5,40.5C 55.5,42.5 55.5,44.5 55.5,46.5C 49.8333,46.5 44.1667,46.5 38.5,46.5C 38.5,44.5 38.5,42.5 38.5,40.5C 40.8333,40.5 43.1667,40.5 45.5,40.5C 44.5,33.5 40.5,29.5 33.5,28.5C 33.5,30.8333 33.5,33.1667 33.5,35.5C 31.5,35.5 29.5,35.5 27.5,35.5C 27.5,33.1667 27.5,30.8333 27.5,28.5C 20.5,29.5 16.5,33.5 15.5,40.5C 17.8333,40.5 20.1667,40.5 22.5,40.5C 22.5,42.5 22.5,44.5 22.5,46.5C 20.076,46.1924 17.7427,46.5258 15.5,47.5C 17.4742,52.8075 21.1408,56.4742 26.5,58.5C 27.4742,56.2573 27.8076,53.924 27.5,51.5C 29.5,51.5 31.5,51.5 33.5,51.5C 33.5,57.1667 33.5,62.8333 33.5,68.5C 31.5,68.5 29.5,68.5 27.5,68.5C 27.5,67.1667 27.5,65.8333 27.5,64.5C 17.1504,62.8171 11.1504,56.8171 9.5,46.5C 8.16667,46.5 6.83333,46.5 5.5,46.5C 5.5,44.5 5.5,42.5 5.5,40.5C 6.83333,40.5 8.16667,40.5 9.5,40.5C 10.5,29.5 16.5,23.5 27.5,22.5C 27.5,21.1667 27.5,19.8333 27.5,18.5 Z"/></g>
<g><path style="opacity:0.81" fill="#000000" d="M 76.5,27.5 C 81.5,27.5 86.5,27.5 91.5,27.5C 91.5,28.5 91.5,29.5 91.5,30.5C 87.5,30.5 83.5,30.5 79.5,30.5C 79.5,33.5 79.5,36.5 79.5,39.5C 82.8333,39.5 86.1667,39.5 89.5,39.5C 89.5,40.5 89.5,41.5 89.5,42.5C 86.1667,42.5 82.8333,42.5 79.5,42.5C 79.5,46.5 79.5,50.5 79.5,54.5C 78.5,54.5 77.5,54.5 76.5,54.5C 76.5,45.5 76.5,36.5 76.5,27.5 Z"/></g>
<g><path style="opacity:0.685" fill="#000000" d="M 164.5,27.5 C 178.766,25.9354 184.599,32.2687 182,46.5C 178.527,54.0949 172.694,56.5949 164.5,54C 156.958,50.0613 154.458,43.8947 157,35.5C 158.353,31.6499 160.853,28.9832 164.5,27.5 Z M 166.5,30.5 C 175.635,30.1343 179.802,34.4676 179,43.5C 174.551,52.9471 168.551,53.9471 161,46.5C 158.548,39.6224 160.381,34.289 166.5,30.5 Z"/></g>
<g><path style="opacity:0.676" fill="#000000" d="M 189.5,27.5 C 192.85,27.335 196.183,27.5017 199.5,28C 201.919,29.5088 202.919,31.6755 202.5,34.5C 199.57,33.4105 196.736,32.0772 194,30.5C 188.978,31.2067 187.811,33.5401 190.5,37.5C 194.506,38.7917 198.339,40.4583 202,42.5C 204.367,46.9991 203.533,50.8324 199.5,54C 195.375,54.8538 191.375,54.5204 187.5,53C 185.984,51.103 185.317,48.9363 185.5,46.5C 187.978,47.1949 189.978,48.6949 191.5,51C 195.482,52.4208 198.148,51.2541 199.5,47.5C 199.471,45.9707 198.804,44.804 197.5,44C 193.161,43.1151 189.327,41.2818 186,38.5C 184.663,33.8721 185.83,30.2054 189.5,27.5 Z"/></g>
<g><path style="opacity:0.806" fill="#000000" d="M 94.5,33.5 C 96.1238,33.3601 97.2904,34.0267 98,35.5C 99.7889,33.771 101.956,33.1043 104.5,33.5C 104.5,34.5 104.5,35.5 104.5,36.5C 102.278,36.178 100.444,36.8446 99,38.5C 97.661,43.7364 97.161,49.0698 97.5,54.5C 96.5,54.5 95.5,54.5 94.5,54.5C 94.5,47.5 94.5,40.5 94.5,33.5 Z"/></g>
<g><path style="opacity:0.688" fill="#000000" d="M 111.5,33.5 C 115.584,33.0431 119.417,33.7098 123,35.5C 124.049,33.8934 125.549,33.2267 127.5,33.5C 127.5,40.5 127.5,47.5 127.5,54.5C 125.549,54.7733 124.049,54.1066 123,52.5C 110.29,57.4651 104.957,53.1318 107,39.5C 107.804,36.8541 109.304,34.8541 111.5,33.5 Z M 114.5,36.5 C 121.091,36.5935 123.924,39.9269 123,46.5C 119.902,52.3189 115.902,52.9856 111,48.5C 108.841,43.4823 110.007,39.4823 114.5,36.5 Z"/></g>
<g><path style="opacity:0.686" fill="#000000" d="M 136.5,33.5 C 140.584,33.0431 144.417,33.7098 148,35.5C 149.049,33.8934 150.549,33.2267 152.5,33.5C 152.914,42.5822 152.414,51.5822 151,60.5C 147.34,64.3674 142.84,65.534 137.5,64C 134.211,62.5897 132.544,60.0897 132.5,56.5C 135.295,58.8804 138.629,60.5471 142.5,61.5C 147.353,60.4759 149.186,57.4759 148,52.5C 135.29,57.4651 129.957,53.1318 132,39.5C 132.804,36.8541 134.304,34.8541 136.5,33.5 Z M 139.5,36.5 C 146.091,36.5935 148.924,39.9269 148,46.5C 144.902,52.3189 140.902,52.9856 136,48.5C 133.841,43.4823 135.007,39.4823 139.5,36.5 Z"/></g>
<g><path style="opacity:0.604" fill="#49b1e1" d="M 38.5,47.5 C 42.8333,47.5 47.1667,47.5 51.5,47.5C 51.3792,53.9959 48.0459,56.3292 41.5,54.5C 41.6641,57.1873 41.4974,59.854 41,62.5C 39.1551,64.3501 37.1551,64.6834 35,63.5C 33.4322,57.3751 34.5989,52.0418 38.5,47.5 Z"/></g>
<g><path style="opacity:0.999" fill="#0baff9" d="M 38.5,49.5 C 42.1667,49.5 45.8333,49.5 49.5,49.5C 49.5,50.5 49.5,51.5 49.5,52.5C 46.1667,52.5 42.8333,52.5 39.5,52.5C 39.5,55.8333 39.5,59.1667 39.5,62.5C 38.5,62.5 37.5,62.5 36.5,62.5C 35.9749,57.8602 36.6416,53.5269 38.5,49.5 Z"/></g>
</svg>
